<svg enable-background="new 0 0 446.5 142.6" viewBox="0 0 446.5 142.6" xmlns="http://www.w3.org/2000/svg"><path d="m294.6 51.2c47.3 9 105.8 19.8 106.7 20h.1s.3-.2.7-.5l5.2 1.4c.1-.1 14.7-6.8 22.6-9.8 8.1-3.1 11.4-3.7 12.8-3.6.8 0 1.7-.3 2.3-1 .5-.6.8-1.3.7-2.1-.2-1.8-2.4-2.4-2.5-2.4s-.5-.1-1.3-.2c-.6-.1-1.3-.2-2.2-.4 0 0-.2-.1-.4-.1-16.3-2.7-79.2-13.6-122.3-21.1.9-1.1 1.7-2.1 2.2-3 .9-1.6 3-5.7 1.3-9.2-1.2-2.6-4.2-4.3-8.9-5-9.8-1.6-23-3.1-30-3.9-1.2-.1-2.4-.2-3.6-.1-16.9.9-25.9 2.9-36.2 5.3l-1.4.3c-1.3.3-2.7.6-4 1l-79.5-15-1.2-.2c-.3 0-.7-.1-1.1-.1-7.3.1-19.1 7.2-19.3 7.3 0 0-.1.1-.1.1s0 .1.1.1l65.2 22.1c-13.7 7.1-32.7 18.5-48.1 28.3-3.6 2.3-7.5 4.8-11.8 7.6-2.3-5.1-6.4-14.9-7-17.6-.6-2.5 0-5.6 1.6-7.3 2.7-1 5-1.8 6.3-2.3.3.2.6.3.8.3h.3l8.2-3c.1 0 .1-.1.2-.1l2.1-1.1c.1-.1.3-.2.4-.3s4.6-2.5 5.9-6.5c.2-.5 0-1.1-.5-1.3-2.7-1.7-8.4-1.5-8.7-1.5-.1 0-.2 0-.3 0l-2.6.2c-.1 0-.1 0-.2 0s0 0 0 0l-8.1 3c-.3.1-.6.5-.8 1l-26.4 9.7c-.4-.4-.9-.6-1.2-.5-2.4.9-7 2.6-8.6 3.1l-1.9 1.5c-1.3.7-2.5 1.7-3.5 2.9-1.1 1.3-1.8 2.7-2.2 3.6-.3.7 0 1.6.8 1.9 1.3.6 3.5 1.2 6.9 1.2.5 0 1.1 0 1.6-.1h2.3l8.5-3.1c.3-.1.6-.5.7-1.2.2-.1.9-.3 1.9-.7.5 1.3 7.5 18 11 26.5-2 1.3-3.8 2.5-5.4 3.5-3 1.9-5.3 3.5-6.7 4.4v.1.4.2s0 .1.1.1l5.8 3.7-67 25.5c-3.3-4.7-18.8-27.9-19-28.1l-2.6-4.1s-.9-.5-3.6.2l-11.5-13.6-1.6-2.8c-.1 0-1.4-.6-4.7.6s-11.1 5-11.1 5.1c0 0-.1.1-.1.1l.8 2.8 15.8 54-5.1 1.9c-3.3 1.3-6.3 2.9-7.2 3.7-.7.6-.6 1.3-.6 1.4l.4 1 .3.7c.1.3.4.5.7.6.4.1.9.2 1.7.2h.6c3.3-.1 6.9-1.3 6.9-1.3l113.8-43.3c.5.3 1 .6 1.4.9h.1c15.2-1.8 50.9-7.7 74.4-11.7l22.9-3.9 2.6-1.2 12.4-3.1 12.2-3.9 13.1-5.5 14.7-7.2 7.4-4.6 2.2-1.2z" fill="#fff"/><path d="m236.2 39.6.5-.6s10.2-7.3 14.7-9.9 10.8-4.8 11.8-5.1 4.6-.8 4.6-.8h3.7l4.6 1.2 23.8 4 32.8 5.6 41.5 7.2 26 4.4 38.6 6.8-1 .4-2.2.6s-6.9 1.5-20.2 8.6l-10.7 6.7-3.5 2.6-16.4-2.7-48.1-9.1-57.9-11.2z" fill="#e73c3e"/><path d="m136.5 9.4 63.8 21.7 16.2-7.6 11.7-4.3 7.9-2.5-67-12.6-12.1-2.3-3.6.2s-11.4 3.1-17.2 7.2z" fill="#e73c3e"/><path d="m295.1 51.9c47 8.9 105.5 19.8 106.1 19.9.2 0 .3 0 .5-.1 0 0 .2-.1.5-.3l5 1.4h.2c.1 0 .2 0 .3-.1s14.7-6.8 22.6-9.8c8.4-3.2 11.5-3.6 12.6-3.6 1 0 2-.4 2.7-1.1.6-.7.9-1.5.9-2.4-.2-2.1-2.7-2.8-2.9-2.9l-1.3-.2-2.1-.4c-.1 0-.3-.1-.5-.1-16.5-2.9-78.7-13.7-121.8-21.2.7-.8 1.3-1.7 1.7-2.4 1-1.7 3.1-5.9 1.3-9.6-1.3-2.8-4.4-4.5-9.3-5.3-9.8-1.6-23-3.1-30-3.9-1.2-.1-2.5-.2-3.7-.1-17 .9-25.9 2.9-36.3 5.3l-1.4.3c-1.2.3-2.5.6-3.9 1l-79.2-15s0 0-.1 0l-1.2-.3c-.3 0-.7-.1-1.1-.1-7.4.1-19.4 7.3-19.5 7.4-.2.1-.3.4-.3.6s.2.4.4.5l4.5 1.5v.2c-.2 1.1-.2 2.3-.2 3.5 0 2.3.3 4.6.7 6.8.4 2.1.9 4.2 1.5 6.2l-2.9 1.1c-.3.1-.7.4-1 1.1l-26 9.5c-.5-.4-1-.6-1.5-.4l-1.7.6c-1.3-2.7-2.7-5.4-4.4-7.9-1.5-2.2-3.1-4.2-5-6-1-.9-2-1.7-3.3-2.3-.6-.3-1.3-.5-1.9-.6-.7-.1-1.4 0-2 .2-.7.2-1.2.7-1.7 1.2-.4.5-.8 1.1-1.1 1.7-.5 1.2-.8 2.5-1 3.8-.3 2.6-.2 5.2.1 7.8s.8 5.1 1.4 7.6 1.4 5 2.3 7.4c-1.7-4.9-3-9.9-3.6-15.1-.3-2.6-.3-5.2 0-7.7.2-1.3.5-2.5 1-3.7.5-1.1 1.4-2.2 2.5-2.6 1.2-.4 2.4-.1 3.5.5s2.1 1.4 3 2.2c1.8 1.8 3.4 3.8 4.8 6s2.6 4.4 3.7 6.7c.2.3.3.7.5 1l-6 2.2s-.1.1-.2.1l-1.9 1.5c-1.4.7-2.6 1.7-3.6 3-1.2 1.4-1.9 2.8-2.3 3.8s0 2.2 1 2.6c1.3.6 3.6 1.3 7.1 1.3.5 0 1.1 0 1.7-.1h2.3.2l6.1-2.2c.1.5.3 1 .4 1.5.6 2.5 1.1 5 1.4 7.6.3 2.5.4 5.1.1 7.7-.1 1.3-.4 2.5-.9 3.7-.5 1.1-1.3 2.2-2.4 2.6s-2.4.2-3.6-.4c-1.1-.6-2.2-1.3-3.1-2.2-1.9-1.7-3.5-3.8-5-5.9-2.9-4.3-5.1-9-6.9-13.9.9 2.4 1.9 4.8 3 7.2 1.1 2.3 2.4 4.6 3.8 6.8s3 4.3 4.9 6.1c.9.9 2 1.7 3.2 2.3.6.3 1.2.5 1.9.6s1.4.1 2-.2c.7-.2 1.2-.6 1.7-1.2.5-.5.8-1.1 1.1-1.7.5-1.2.9-2.5 1.1-3.8.4-2.6.3-5.2 0-7.8-.3-3.2-1-6.3-1.8-9.3l1.5-.5c.3-.1.7-.4.9-1.3l1.1-.4c1.2 2.8 7.3 17.6 10.6 25.7l-5.1 3.3c-3 1.9-5.3 3.4-6.7 4.3 0 0-.1.1-.1.1s0 0-.1.1v.1c0 .1-.1.2-.1.3v.4.2c0 .2.1.4.3.5l5 3.2-65.7 25c-3.2-4.6-15-22.1-18.6-27.5l-.2-.3-2.2-4.1c0-.1-.1-.2-.2-.2-.2-.1-1.1-.6-3.7.1l-10.9-13.3-1.5-2.8c-.1-.1-.2-.2-.3-.3-.2-.1-1.6-.7-5.1.6-3.3 1.3-11.1 5.1-11.1 5.2-.3.1-.4.4-.3.7l.7 2.8 15.7 53.5-4.6 1.8c-3.3 1.3-6.4 3-7.4 3.8s-.8 1.8-.8 1.9v.1l.2.5c-2.3 1.2-3.3 2.7-2.8 4.4.4 1.6 1.9 2 3 2 .4 0 .7 0 .9-.1.3-.1.4-.3.4-.6-.1-.3-.3-.4-.6-.4-.4.1-2.3.3-2.7-1.2-.1-.4-.5-1.7 2.2-3.1l.1.3c.2.5.5.8 1 .9.4.1 1 .2 1.8.2h.6c3.3-.1 6.9-1.3 7.1-1.3l113.6-43.2 1.2.8c.1.1.3.1.4.1 15.1-1.8 50.3-7.6 73.9-11.6l23.3-3.9s2.1-.4 2.4-1.1c.2 0 6.2-1.6 6.2-1.6l8.7-2.4 7.4-2.3 9.2-3.3 6-2.5 6-2.7 9.3-5.1 9.6-5.8zm142.6.7c-2 .3-5.8 1.3-12.8 4.4-2.8 1.3-5.7 2.7-8.3 4.1 0 0 0 0-.1 0l-164.7-28.2c3.3-2.1 7.1-4.2 10.7-5.7 7.3-3.1 12-2.8 13.4-2.6 11.7 2 134.2 23.2 161.8 28zm-203.6-20c-.6-.7-1.1-1.2-1.6-1.6 9.5-4.6 18.4-8.2 28-10.8l.3.1c.6.1 1.1.2 1.7.2s1.2-.1 1.8-.2h.2s.1 0 .1.1c0 0 2.7.5 5.2 1.7-.2 0-.2.1-.2.1s0 0-.1 0c-3.9-1.2-8.9-.2-16.5 3.4-2.5 1.1-5.3 2.9-8.5 5.2-3.3 2.4-6.4 5.1-9.3 7.8 3.1-2.7 6.2-5.2 9.5-7.5 3.1-2.3 6-4 8.4-5.1 8.6-4 13.8-4.8 17.7-2.7-2.1-.2-6.5 0-13 2.7-9.5 4-19.9 12-21.9 13.6-.1 0-.1.1-.1.2 0 0 0 .1-.1.1 0 .2.1.3.2.4l7.2 1.4c-1.1.5-3.2 1.5-4.7 1.3-2.1-.3-4.2-2-4-4 .1-.6.2-1.1.3-1.6.5-1.7.8-3.2-.6-4.8zm36.1-10.8c-2-1-4-1.6-5-1.8 5.4-1.2 14.9-3.3 17.1-3.6h.1c2.6-.3 5.7-.1 6.1-.1.2.1 1.1.8 2.3 2-10.9 1.1-18.3 2.9-20.6 3.5zm20.9-3.2c1.7 1.8 4 4.7 5.5 8.8-4.5-.8-9-1.6-12.8-2.2l-6.4-1-1.6-.2c-.5-.1-1.1-.2-1.6-.3-.4-.1-.8-.2-1.2-.3-1.1-.3-1.6-.6-1.6-.6-.4-.3-.9-.5-1.4-.6 1.9-.4 9.6-2.4 21.1-3.6zm-53.4 21.1c-.5-.1-.9-.2-1.2-.3 2.2-1.7 12.4-9.5 21.5-13.3 8.7-3.7 13.8-2.6 14-2.5.4.1.9.3 1.5.5-2.4.1-6.1.6-11.1 2.8-9.7 4.1-20.5 12.5-21.8 13.5zm70-25.8c1.3.2 2.7.4 3.9.6 4.6.7 7.5 2.4 8.7 4.9 1.6 3.4-.4 7.3-1.3 8.9-.5.8-1.2 1.8-2 2.7-1.2-.2-10.4-1.8-19.9-3.4-2.5-6.8-6.7-10.4-8-11.3 1.1-.2 4.2-.7 8.8-1 4.1-.3 6.4-.3 7.6-.3h1.1c.7-.1 1.2-.3 1.3-.8-.2-.1-.2-.2-.2-.3zm-65.9 1.9c10.3-2.4 19.3-4.5 36.2-5.3 1.2-.1 2.4 0 3.6.1 6 .7 16.5 1.9 25.5 3.2.2.1.3.2.3.3 0 .2-.3.4-1 .4-.2 0-.5 0-1 0-1.2 0-3.5 0-7.6.3-5.5.4-8.9 1-9.2 1.1-.3 0-3.5-.2-6.2.1h-.1c-2.3.3-12.9 2.6-18.1 3.8-1.1.2-2.2.3-3.3 0l-.3-.1h-.1l-.9-.2c-5.5-1.2-15.8-3.4-17.2-3.5-.5 0-.9-.1-1.3-.1zm-2.7.7s1.2-.2 3.2 0c1.4.1 12.1 2.4 17.2 3.5h.2c-9.4 2.6-18.2 6.2-27.5 10.8-.8-.5-1.6-.7-2.5-.9h-.2c-2.9-.7-16.3-3.6-17-3.7-.3-.1-.6-.1-.8-.1.3-.1.6-.3.9-.4.1 0 .2-.1.4-.2 8.8-3.9 18.1-7.1 26.1-9zm-73.6 24.1c-.6-4.6-1.8-9-3.4-13.4-1.3-3.5-2.8-6.9-4.6-10.2l41.7 14.2c-10.2 5.4-22.7 12.6-33.8 19.4.2-1 .3-2.1.4-3.1.2-2.3 0-4.6-.3-6.9zm-8.5-24.6c-.2-.4-.5-.8-.7-1.2-1.2-2-2.6-3.8-4.1-5.6-.8-.8-1.6-1.6-2.4-2.3l33 9.2-10.8 4.9zm15.4 5.2 10.8-5.1 30.1 8.4c-.2.1-.5.2-.7.3s-.4.2-.4.2c-.5.2-1 .5-1.3.7l-.3.2c-2.8 1.2-6.2 2.8-10.2 4.9zm62.1-4.3c-5.3 1.5-10.8 3.4-16.4 5.6 5-2.6 12.1-5.8 16.4-5.6zm-78.6-14.9c.4 0 .7 0 1 .1l76.2 14.5c-5.7.5-14 4.9-18.2 7.3-.3.1-.7.3-1 .4l-65-18.1c-.7-.5-1.5-.9-2.3-1.2-.3-.1-.6-.2-1-.3 3.4-1.4 7.2-2.6 10.3-2.7zm-2.3-.2c-2.8.5-6 1.6-8.9 2.8-.3 0-.5 0-.8.1 3.2-1.3 6.8-2.6 9.7-2.9zm-10.7 4.1c.3-.1.5-.2.8-.4.3-.1.5-.1.8-.1l2.7.8c.6.4 1.3.8 1.8 1.3.9.7 1.7 1.5 2.4 2.3 1.5 1.7 2.8 3.5 4 5.5.1.1.1.2.2.3l-15.2-5.2c.2-.8.4-1.6.7-2.3.5-.9 1-1.7 1.8-2.2zm-6.7 3-.3-.1c.9-.5 3.4-1.9 6.4-3.3-.2.2-.4.4-.6.6-3.1 1.5-5.4 2.8-5.5 2.8zm.5.2c.6-.3 2.3-1.3 4.5-2.4-.2.4-.4.7-.6 1.1-.3.8-.5 1.5-.7 2.3zm3.3 5.6c0-1.1.1-2.3.3-3.4v-.1l15.9 5.4c2 3.5 3.6 7.2 5 11 1.5 4.3 2.7 8.7 3.4 13.2.3 2.2.5 4.5.4 6.8 0 1.1-.2 2.2-.4 3.3 0 .1-.1.3-.1.4-2.2 1.3-4.3 2.7-6.3 3.9-.1 0-.1-.1-.2-.1-2-1-3.6-2.7-5.1-4.4-2.9-3.4-5.2-7.3-7.1-11.4l5.1-1.9c.1 0 .2-.1.3-.1l2-1.1c.1-.1.3-.2.4-.3s4.7-2.6 6.1-6.8c.2-.7 0-1.5-.7-1.9-2.8-1.8-8.3-1.6-9-1.6-.1 0-.2 0-.3 0l-2.6.2c-.1 0-.2 0-.4.1l-5.3 2c-.7-4.5-1.5-8.8-1.4-13.2zm24.2 37.7c-.2.5-.4 1-.7 1.5-.5.9-1.4 1.6-2.4 1.8-.6.1-1.3 0-2-.2 1.7-1 3.4-2.1 5.1-3.1zm-10.4-22.3c-.5-1.5-1.3-2.8-2.2-3.6-.1-.1-.2-.1-.3-.2 1.8 0 5.5.2 7.5 1.5.3.2.5.6.4 1-1 2.9-3.7 5-5 5.9.1-.2.1-.3.2-.5.1-1.1-.1-2.6-.6-4.1zm-1.7-2.4c.1.2.3.4.4.6l-2.4.4c-.1-.2-.2-.4-.3-.5zm-2.4.2c-.1-.2-.2-.3-.4-.5l2.4-.3c.2.2.3.4.5.6zm2.8.4c.1.2.2.4.3.6-.2 0-.4.1-.6.1l-.6.1-1.1.3c-.1-.2-.2-.4-.3-.5zm-.8 1 .6-.2c.2-.1.4-.1.6-.2.1.2.2.4.3.6l-2.3.7c-.1-.2-.2-.4-.2-.5zm-.8 1.1 2.2-.9c.1.2.1.3.2.5l-2.3.9c0-.2 0-.3-.1-.5zm.5 3.3v.6l-7.8 2.8c0-.2 0-.4-.1-.6zm-7.9 2.6c0-.2-.1-.4-.1-.6l7.8-2.8c0 .2.1.4.1.6zm7.8-4.6c-.1-.2-.1-.4-.2-.5l2.2-1.1c0 .1 0 .1.1.2.1.2.1.3.2.5-.2.1-.3.2-.5.2l-.6.3zm-.1.9-7.8 2.8c0-.2-.1-.4-.1-.6l7.8-2.8c0 .3 0 .4.1.6zm-7.6 5.7 7.8-2.8c-.1.5-.2.9-.5 1.1l-.2.1-7.4 2.7c.2-.3.3-.7.3-1.1zm0-.3c0-.2 0-.4 0-.6l7.8-2.8v.3.3zm7.8-6.1 1.1-.6.6-.3c.2-.1.3-.2.5-.3.1.2.1.5.2.7-.4.2-.8.4-1.2.6l-1.1.5c0-.2-.1-.4-.1-.6zm1.3.9c-.3.2-.7.3-1 .5 0-.2-.1-.4-.1-.6l1.1-.6c.4-.2.8-.4 1.1-.7.1.2.1.5.1.7-.4.3-.8.5-1.2.7zm1.2-.7c0 .3.1.5.1.7-.4.2-.8.5-1.1.7-.4.2-.7.4-1.1.5 0-.2 0-.4-.1-.6.4-.2.7-.4 1.1-.6s.7-.4 1.1-.7zm-2.1 3.2c.8-.5 1.5-1 2.2-1.6v.4c-.1.5-.5 1-1 1.3l-1.4.8c.1-.3.1-.6.2-.9zm0-.3v-.1c0-.1 0-.3 0-.5.4-.2.7-.5 1.1-.7s.7-.5 1.1-.8v.8c-.7.5-1.5.9-2.2 1.3zm-.4-8.2c.1.1.2.2.3.3l-2.6.1c-.2-.2-.3-.3-.5-.5l2.2-.2c.3.1.4.2.6.3zm-3-.3s-.1-.1-.1-.1l1.7-.1c.3 0 .6 0 .9.2zm.3.8-7.8 2.8c-.2-.2-.3-.3-.5-.5l7.8-2.9c.2.3.3.4.5.6zm.2.2c.1.2.2.3.4.5l-7.8 2.8c-.1-.2-.3-.4-.4-.5zm.5.7c.1.2.2.3.3.5h-.1l-7.8 2.8c-.1-.2-.2-.4-.3-.5zm.4.8h.1c.1.2.2.4.3.5l-7.8 2.8c-.1-.2-.2-.4-.3-.5zm.4.8c.1.2.2.4.2.6l-7.8 2.8c-.1-.2-.2-.4-.2-.6zm.4.8c.1.1.1.3.2.4v.1l-7.8 2.8c-.1-.2-.1-.3-.2-.5zm.2.7c.1.2.1.4.2.5l-7.8 2.8c-.1-.2-.1-.4-.2-.5zm-7.6 7.1c-.1.7-.3 1.2-.7 1.3-.2.1-.4 0-.6-.1.2-.1.4-.1.5-.2.5-.1.7-.5.8-1zm-.5 2.1c.1 0 .1 0 0 0h.1l3-1.1c.9 2 1.8 4 2.9 5.9 1.1 2 2.4 3.9 3.8 5.7 1.4 1.7 3 3.4 5 4.5-1.9 1.2-3.7 2.3-5.4 3.4-3.5 2.2-7.2 4.6-11.4 7.3-2.3-5.2-6.2-14.5-6.8-17-.6-2.3 0-5.1 1.4-6.8l6-2.2c.6.3 1 .4 1.4.3zm4.5-14c.2-.1.5 0 .7.1l-7.8 2.8c-.1-.1-.3-.2-.4-.2zm-8.2 3.1c.4-.1.8.1 1.4.7-.2-.1-.3-.2-.5-.3-.3-.1-.6-.2-.8-.1l-.5.2c.1-.3.2-.5.4-.5zm-27 11.2c.1.1.2.3.3.5-.1 0-1.1.4-2.6.9-.1-.2-.2-.4-.2-.5 1.5-.6 2.5-.9 2.5-.9zm-.6 5.6c1.3-.5 2.4-.9 2.7-1 .1.2.1.4.2.6l-2.7 1c0-.2-.1-.4-.2-.6zm.2 3.6-5.2 1.9c0-.2 0-.4-.1-.7l5.1-1.9c0 .3.1.5.2.7zm-.2-3.8c-.1-.2-.1-.3-.2-.5 0-.1 0-.1-.1-.2l2.8-1c.1.2.1.4.2.6-.3.2-1.4.6-2.7 1.1zm-.3-.9c-.1-.2-.2-.4-.2-.6l2.8-1c.1.2.2.4.2.6zm-.4-.8c-.1-.2-.1-.4-.2-.5 1.4-.5 2.5-.9 2.7-1 .1.2.2.3.2.5zm-7.4-.5s0 .1.1.1c.1.1.2.3.2.4l-1.9 1.3c-.1-.2-.2-.4-.4-.6zm-1.9 1.1c-.1-.2-.3-.4-.4-.6l1.8-1.2c.1.1.2.3.4.5zm2.3-.4c.1.2.2.4.3.6l-1.9 1.2c-.1-.2-.2-.4-.3-.7zm.4.7c.1.2.2.3.2.5l-2 1.1c-.1-.2-.2-.4-.3-.6zm.3.8c.1.2.2.4.2.5l-2 1c-.1-.2-.2-.4-.3-.6zm.6.4c-.1-.2-.1-.4-.2-.5.7-.2 2.8-1 4.8-1.8.1.2.1.4.2.5zm4.9-1.6c.1.2.2.4.2.6l-4.8 1.7c-.1-.2-.2-.4-.2-.6zm-5.2.8c-.1-.2-.2-.3-.2-.5.8-.3 2.9-1.1 4.9-1.8.1.2.1.3.2.5-2.1.8-4.3 1.6-4.9 1.8zm0 1.1c.1.2.2.4.2.6l-2.1.8c-.1-.2-.2-.4-.2-.6zm.3.9c.1.2.1.4.2.7-.1 0-.3.1-.4.1l-.6.2c-.4.1-.7.2-1.1.3-.1-.2-.1-.4-.2-.6 0-.1 0-.1-.1-.2zm-.8 1.1.6-.1c.1 0 .3-.1.4-.1.1.2.1.4.2.7l-1.1.3c-.4.1-.7.2-1.1.3-.1-.2-.1-.5-.2-.7.5-.3.9-.4 1.2-.4zm1.2-1.3 4.8-1.7c0 .1 0 .1.1.2.1.2.1.3.2.5-2 .7-4.2 1.5-4.8 1.8-.2-.3-.2-.5-.3-.8zm5.1-.8c.1.2.1.4.2.6l-4.9 1.8c-.1-.2-.1-.4-.2-.6.7-.3 2.9-1.1 4.9-1.8zm-.1-3.1c-.1-.2-.1-.3-.2-.5 1.5-.5 2.6-1 2.7-1 .1.2.2.3.3.5-.3.1-1.4.5-2.8 1zm-.3-.8c-.1-.2-.1-.4-.2-.5 1.4-.5 2.5-.9 2.5-.9.1.2.2.3.3.5 0 0-1.2.4-2.6.9zm1.8-2.3c-.3.1-1.2.4-2.4.9-.1-.2-.2-.3-.2-.5 1.1-.4 1.9-.7 2.2-.8.1 0 .2.2.4.4zm-1.3-.9c.2 0 .4 0 .6.2-.4.1-1.1.4-2.1.8-.1-.1-.1-.2-.2-.3.7-.3 1.2-.5 1.7-.7zm-1.4 3.6c-1.9.7-4.1 1.5-4.9 1.8-.1-.2-.2-.4-.3-.5 1.1-.4 3.1-1.1 4.9-1.8.2.1.2.3.3.5zm-.5-1.3c.1.2.2.4.2.5-1.8.7-3.9 1.4-5 1.8-.1-.2-.2-.3-.3-.4 0 0 0 0 0-.1 1.3-.5 3.3-1.2 5.1-1.8zm-.1-.2c-1.8.6-3.8 1.4-5.1 1.8-.1-.2-.2-.3-.4-.5 1.6-.6 3.6-1.3 5.2-1.9.1.2.2.4.3.6zm-.5-1.1c.1.1.1.2.2.3-1.7.6-3.7 1.4-5.3 1.9-.1-.1-.2-.2-.3-.3 1.2-.4 3.4-1.2 5.4-1.9zm-6.1 2.2c.1 0 .1 0 0 0 .1 0 .3 0 .5.2l-1.7 1.4c-.2-.2-.3-.3-.5-.4zm1.2 10.5s0 .1 0 0c-4 .2-6.6-.5-8.1-1.2-.6-.3-.9-1-.6-1.5.4-.9 1.1-2.3 2.2-3.6 1-1.2 2.1-2.1 3.4-2.8.4-.1 1.5 1.5 2.5 4.2.4 1.2.7 2.4.8 3.4.1 1.1-.1 1.5-.2 1.5zm.1-3.6c.4 0 .8-.1 1.1-.2l1.1-.2c.1.2.1.4.2.6l-1.1.2c-.4.1-.8.2-1.1.2 0-.1-.1-.3-.2-.6zm1.4.7 1.1-.1c0 .2.1.5.1.7l-2.2.3c0-.2-.1-.5-.1-.8.3 0 .7-.1 1.1-.1zm1.2.8c0 .3.1.5.1.7l-2.2.2c0-.1 0-.1 0-.2 0-.2 0-.4-.1-.6zm-.2 2.1c-.3 0-1.5 0-2.1 0 .1-.3.2-.7.1-1.3h2.2c.1.8 0 1.2-.2 1.3zm.2-4 4.9-1.8c.1.2.1.4.2.6l-4.9 1.8c-.1-.2-.1-.4-.2-.6zm.2.9 5-1.8c.1.2.1.4.2.6l-5 1.8c-.1-.2-.1-.4-.2-.6zm.2 2.9c.1-.3.1-.6.1-1l5.3-1.9c.1.3.2.6.3.9zm5.4-5.9 2.7-1c.1.2.1.4.1.7l-2.6.9c0-.2-.1-.4-.2-.6zm.3.8 2.6-.9c0 .2.1.5.1.7l-2.5.9c0-.2-.1-.4-.2-.7zm2.2 2.2-1.4.5c-.1-.3-.2-.6-.3-.9l2.2-.8c0 .7-.2 1.1-.5 1.2zm-1.7-.7c-.1-.2-.1-.4-.2-.6l2.4-.9v.3.3zm2.6-.5c0-.2 0-.4 0-.6 0-1.2-.3-2.6-.9-4.1-.6-1.6-1.4-3.3-2.2-4.2l27.1-10h.1c.2-.1.3 0 .5.1.9.4 1.9 2 2.5 3.9.9 2.6.7 4.7 0 5-2.7.9-24.4 8.9-27.1 9.9zm2.2-.1 16.6-6.1-6.9 7.5c-.3.3-.5.8-.4 1.2 0 .2 0 .5.1.7l-7.1 2.1c-1.1-2.5-1.9-4.5-2.3-5.4zm2.4 5.8 7-2.1c.1.4.2.8.4 1.2.7 1.7 5.3 13.3 7 17.3l-6.4 3c-2.3-5.6-5.7-13.8-8-19.4zm-86.6 26.4 2.2 4.1c.2.2 16.7 24.8 19.3 28.5l.2.3c.1.1.2.2.3.2.2.1.5.2.7.2-.2-.1-.4-.2-.6-.3-.1-.1-.2-.3-.3-.5.5 0 1.3.2 1.6.7.2.4.1.9-.3 1.6-1.4 2.3-6.5 4.6-15.7 7-8 2-20.5 4.6-22.3 4.9v-.5l11.3-2.8c.1 0 .2-.1.1-.2l-8.1-33.1c0-.1-.1-.2-.2-.1l-5.4 1.2-.1-1.1c.8-.2 5.1-1.4 9-2.5l2.5-.8c.8-.3 1.7-.5 2.5-.8 1.6-.6 3.2-1.3 4.8-2.1-1.6.7-3.2 1.4-4.8 1.9-.8.3-1.7.5-2.5.7l-2.5.7c-3.8 1.1-8.1 2.2-9 2.5l-.8-3c1-.5 7.4-3.7 11.9-5.5 4.4-1.8 5.9-1.3 6.2-1.2zm-16.8 16.3-.3-4.9 5.3-1.2 4.6 18.7-8.6 1.9-.9-14.4c-.1 0-.1-.1-.1-.1zm9.6 13 3.3 13.7-11.1 2.7-.9-14.4zm-24.1-37.1c.6-.2 3-1 5.8-2l9.6-3.4-9.7 3c-2.8 1-5.1 1.8-5.8 2l-.7-2.4c1.1-.5 7.9-3.9 11-5 2.8-1 4.2-.7 4.4-.6l1.5 2.8 11.1 13.1c-.8.2-1.6.5-2.6.9-4.9 2-12 5.5-12.1 5.6s-.2.2-.1.3l.8 3.2.1 1.9-7.8-19.8c0-.1-.1-.1-.2-.1l-4.9 1.7zm.5 1.5 4.8-1.6 8.2 20.7.2 3.6-6 2.2zm7.3 25.2 5.9-2.2 1.9 29zm5.1 35.1s-3.6 1.2-6.8 1.3c-1.2 0-1.8-.1-2.2-.1-.2-.1-.4-.2-.5-.4l-.2-.7s0 0 0-.1 0-.6.5-1.1c.4-.3 1.2-.9 2.4-1.5l1.6-1 .4-.2c.1 0 .1-.1.2-.2 0 0 .1-.1 0-.2 0-.1-.1-.1-.1-.1-.3 0-.6.1-.9.3.3-.1.6-.2.9-.2h.1c-.1 0-.1.1-.2.1l-.4.2-1.7.8c-1 .6-1.9 1.2-2.4 1.6-.3.2-.4.5-.5.7l-.1-.3s-.1-.6.5-1.1c.8-.6 3.6-2.2 7.1-3.6l5.2-2v.4c0 .1.1.2.3.2h.1.1c.1 0 13.9-2.8 22.5-5 9.4-2.4 14.5-4.7 15.9-7.1.5-.8.6-1.5.3-2-.3-.6-1.1-.8-1.6-.8l66.2-25.1.3.2c.1 0 .2.1.2 0l2.2-.9-.7.7c-.1 0-.1.1-.1.2v.9c0 .1 0 .2.1.2l4.4 2.8zm115.5-42.3-1.4-.9s-.1-.1-.1-.1l-4.8-3.1v-.2l4.3 2.7 1.9 1-1.7-1.3-4.4-2.8c.3-.3 1-1 1.5-1.4.2-.2.4-.3.5-.5 0-.1.1-.1.1-.2 0 0 0-.1.1-.1v-.1c0-.1 0-.2 0-.2 0-.1 0-.1-.1-.2s-.1-.1-.2-.1c-.2 0-.3.1-.5.2.2 0 .3-.1.5 0 .1 0 0 0 0 .1 0 0 0 .1-.1.1s-.1.1-.1.1l-3.8 1.5-6-3.8v-.2l5.8 3.7c.1.1.1.1.2.1l2.2-1.1-2.1.9-5.9-3.7c1.4-.9 3.7-2.4 6.5-4.2l5-3.2c1 2.5 1.6 4 1.8 4.5.2.4.5.9.6 1.3.1.2.2.5.2.7.1.2.1.5.1.7 0-.1 0-.2 0-.3 0 .1 0 .3-.1.4.1-.2.1-.5.1-.8s0-.6-.1-.8c-.1-.5-.2-1.1-.4-1.6-.2-.6-1-2.7-2.1-5.4l6.4-3c.1.3.4.5.7.5h.9c.3 0 .6.1.8.4.8 1.1 2.2 2.5 4.5 3.5-.4.2-.8.5-1.2.7-.8.4-1.5.9-2.3 1.3s-1.6.8-2.3 1.3-1.5 1-2.2 1.5c-.7.6-1.3 1.1-2 1.8.7-.5 1.4-1 2.2-1.5.7-.5 1.4-1 2.1-1.5s1.5-.8 2.3-1.3c.8-.4 1.5-.8 2.3-1.3.5-.3 1-.6 1.5-.9h.1c1-.6 2-1.2 2.9-1.9.7-.5 1.4-1 2.1-1.5.3-.3.7-.6 1-.9s.6-.7.8-1.1c-.2.4-.6.7-.9.9-.3.3-.7.5-1.1.8-.7.5-1.4 1-2.1 1.5-.9.7-1.9 1.3-2.8 1.8-2.4-.9-3.8-2.4-4.6-3.5-.3-.4-.7-.6-1.1-.6h-.9c-.2 0-.3-.1-.4-.3 0 0 0-.1-.1-.2-.7-1.8-2.1-5.2-3.5-8.6l.1-.1c.1 0 .1-.1.1-.2-.7-1.6-1.3-3.2-1.9-4.6 0 0-.1-.1-.1-.1-.1 0-.1 0-.2 0l-.1.1c-.8-1.9-1.3-3.3-1.5-3.9-.4-1-.5-1.7-.5-2.2 0-.3.1-.7.4-.9l6.5-7.1c-.8 1.8-1 4-.6 5.8.7 2.6 4.7 12.5 7.1 17.6.8 1.7 2.1 2.9 3.9 3.4.7.2 1.4.2 2.1.2s1.4-.1 2.1-.4c-.7.1-1.3.1-2 0s-1.3-.2-1.9-.4c-1.5-.4-2.7-1.4-3.4-2.8 4.2-2.7 8-5.2 11.5-7.4 1.9-1.2 3.8-2.4 5.8-3.7.9.4 1.8.6 2.8.4.6-.1 1.2-.4 1.7-.7.5-.4.9-.9 1.2-1.4.5-.8.9-1.7 1.1-2.6 17-10.4 35.4-20.9 45.6-25.2.1 0 .9-.1 1.5 0 .7.1 14.1 3.1 17 3.7h.2c.8.2 1.4.3 2.1.7-8.4 4.1-17.4 9-27.7 14.8-18.4 10.3-41.2 24.8-57.1 35.2l-15.2 10.2 15.4-9.9c15.9-10.4 38.7-24.9 57.1-35.2 10.4-5.8 19.4-10.8 27.9-14.9.5.4 1.1.9 1.7 1.6 1.3 1.5 1 2.8.7 4.3-.1.5-.2 1-.3 1.6-.2 2.3 2 4.1 4.3 4.4h.5c1.8 0 4.1-1.2 4.8-1.6l17 3.4v.2c.7 3.3.9 7 .6 10.8 0 .2 0 .2.2.2.1 0 .2-.1.4-.1.2-.1.5-.2.7-.3s.2-.1.3-.4c.2-1.9.2-3.7.1-5.5-.1-1.5-.3-3-.5-4.5l2.7.5.3 1.3c-.2.1-.5.2-.7.3s-.2.1-.2.3c.1 1.1.2 2.2.2 3.4s0 2.3-.1 3.5c0 .3 0 .3.2.2.4-.1.7-.3 1.1-.4.2-.1.2-.1.2-.3.1-1.2.1-2.3.1-3.4l1.3 5.9c0 .1.1.2.2.2.1 0 9.3-1.7 21.9-6l1.3.2c-4.9 3.1-8.5 5.1-9.9 5.9-19.9 11.1-36.9 15.9-52.3 19.4 0 0-.1 0-.1.1 0 0-.6.6-2 .9-1.6.8-72.9 13.1-96.3 15.9zm136.7-41.9-1.1-5.1 10.9 2.2zm10.5-2.7 11.4 2.3c-11.1 3.6-19.3 5.3-20.8 5.6l-1.1-4.7zm2.9-.1-39.2-7.8c1.2-.9 5.3-4 10.3-7.2l105.1 18c-9.8 4.8-14.3 8.2-14.9 8.6-20.2-3.8-42.4-8-61.3-11.6zm121 22.8c-1.7-.3-28-5.2-59.1-11 1.2-.9 5.8-4.2 15-8.6l59 10.1c-8 4.4-14.2 8.9-14.9 9.5zm1.2-.4c3.1-2.2 12.6-8.8 22.6-13.2 9.8-4.3 13.3-4.5 14.2-4.4.3.1.6.1.9.2-2 .3-5.8 1.3-12.9 4.4-10.6 4.6-20.3 11.4-23.1 13.4zm7.9-3.3c.2-.1.3-.2.5-.3l3.4.9c-.3.1-.5.2-.6.3zm2.6 1.1c-.3.1-.5.2-.6.3l-3-.8c.2-.1.3-.2.5-.3zm31.9-10.8c-.5.6-1.3.9-2.1.9-2-.1-6.5 1.2-12.9 3.6-7.7 2.9-21.5 9.3-22.6 9.8l-2.6-.7c.9-.7 2.5-1.8 4.4-3.1l3.4.9h.1s.4-.2 1-.5h.1s.4-.2 1-.5h.1c.1 0 8.1-4.1 16.6-7.9 3.3-1.5 6.7-3 10.1-4.4-3.5 1.2-6.9 2.6-10.3 4-8.1 3.6-15.8 7.4-16.5 7.8l-3.6-1c1.4-.9 3-1.9 4.8-2.9l.2 2.1.2-2.3c3.4-2 7.2-4 11.1-5.7 9.4-4.1 13-4.5 14.1-4.5h.3c.8.1 1.3.2 1.3.2s2.1.6 2.3 2.2c.2.8-.1 1.5-.5 2z"/><path d="m253.3 63.6c.2-.1.4-.2.6-.2.2-.1.4-.2.6-.2.2-.1.2-.1.2-.3.3-1.6.5-3.1.6-4.6 0-.1 0-.1.1-.2h.1c.5.3 1.2.4 1.8.1.6-.2 1.2-.7 1.8-1.4.8-1 1.3-2.2 1.4-3.3.1-1.3-.2-2.2-1-2.9-.7-.5-1.4-.6-2.3-.3-.2.1-.4.2-.6.3-.5.3-.9.7-1.2 1.3 0 .1-.1.1-.1.1 0-.1 0-.1 0-.2s0-.2 0-.3c0-.2 0-.2-.2-.1s-.4.2-.6.2c-.2.1-.4.2-.6.2-.2.1-.2.1-.2.3.2 1.8.2 3.6.1 5.5s-.3 3.8-.6 5.8c-.1.3-.1.3.1.2zm2.9-11.2c.2-.3.5-.4.8-.6.4-.2.9-.2 1.2 0 .9.5 1.1 2.1.3 3.5-.4.7-.9 1.1-1.4 1.4-.5.2-1 .2-1.4-.2-.3-.4-.5-.9-.5-1.6.1-.9.3-1.7 1-2.5z"/><path d="m243 56.6h.1c1 .1 2 .2 3 .2.2 0 .2.1.2.3v3c0 .1 0 .1.1.1s.1-.1.1-.1c.2-.4.4-.8.6-1.2.6-1.3 1.2-2.5 1.7-3.7.2-.4.4-.8.5-1.3.1-.2 0-.2-.1-.2s0 0-.1 0c-1 .4-2 .8-3 1.2s-2 .8-3 1.2h-.1s0 0-.1 0c0 0-.1.1-.1.1.1.3.1.4.2.4z"/><path d="m242.5 64c.1 0 .1 0 0 0 1.1-.5 2.1-.9 3.1-1.3s2-.8 3-1.2h.1.1s.1-.1.1-.1v-.1h-.1c-1-.1-1.9-.2-2.9-.3-.1 0-.2-.1-.2-.3 0-1 0-2 0-3 0-.1-.1-.1-.1-.2-.1.1-.1.1-.2.2-.2.5-.4 1-.7 1.5-.5 1.1-1.1 2.2-1.6 3.4-.2.4-.4.9-.7 1.3-.1.1 0 .1.1.1z"/><path d="m250.7 53.2c-.2.1-.2.1-.2.3.1 1.1.2 2.3.2 3.4 0 1.2 0 2.4-.1 3.6 0 .2 0 .2.2.1.1-.1.3-.1.4-.2.3-.1.5-.2.8-.3.2-.1.2-.1.2-.3.2-2.4.2-4.8 0-7 0-.2 0-.2-.2-.1s-.4.2-.6.2c-.3.1-.5.2-.7.3z"/><path d="m251 51c.5-.2.8-.8.8-1.3-.1-.5-.6-.8-1.1-.6-.5.2-.8.8-.7 1.3 0 .5.5.8 1 .6z"/><path d="m241.6 72.3c3.7-1.1 7.3-2.3 11-3.5 3.6-1.3 7.2-2.6 10.8-4 1.8-.7 3.6-1.4 5.3-2.2 1.8-.8 3.5-1.5 5.3-2.3-1.8.7-3.5 1.5-5.3 2.2s-3.6 1.4-5.4 2.1c-3.6 1.4-7.2 2.7-10.8 3.9-3.6 1.3-7.3 2.5-10.9 3.6l-5.5 1.8-5.4 1.9 5.5-1.7z"/><path d="m31 123.7c1.1-.2 2.1-.4 3.2-.6l3.1-.7c1-.3 2.1-.5 3.1-.8s2.1-.6 3.1-.9c2.1-.6 4.1-1.3 6.1-2.1.5-.2 1-.4 1.4-.6-.1.1-.1.2-.1.3 0 .3.2.6.6.6.3 0 .6-.2.6-.6 0-.3-.2-.5-.5-.6.4-.2.7-.3 1.1-.5.9-.6 1.8-1.2 2.5-2.1-.8.7-1.7 1.3-2.7 1.7-.9.5-1.9 1-2.9 1.4-2 .8-4 1.5-6.1 2.1-1 .3-2.1.6-3.1.9s-2.1.5-3.1.8l-3.1.7c-1.1.4-2.2.7-3.2 1zm20.6-5.4c.1 0 .2.1.2.2s-.1.2-.2.2-.2-.1-.2-.2c.1-.1.1-.2.2-.2z"/><path d="m258 17.8c3.1-.7 8.9-2.1 13.1-3-2.3-.3-6-.8-8.4-1.2-4.3.9-9.9 2.1-12.8 2.8.4.1 1 .2 1.6.3 2 .3 4.7.7 6.5 1.1z"/><path d="m36.1 122.7c-.3 0-.6.2-.6.6s.2.6.6.6c.3 0 .6-.2.6-.6s-.3-.6-.6-.6zm0 .8c-.1 0-.2-.1-.2-.2s.1-.2.2-.2.2.1.2.2-.1.2-.2.2z"/><path d="m124.6 37.8 2.4-.9 2.4-.9 1.2-.4c.4-.2.8-.4 1.2-.6-.4.1-.8.2-1.2.3l-1.2.4-2.4.9-2.4.9-1.2.4c-.4.2-.8.4-1.2.6.4-.1.8-.2 1.2-.3z"/><path d="m124.5 38.6 2.7-1 2.7-1 1.3-.5c.4-.2.9-.4 1.3-.6-.5.1-.9.2-1.4.4l-1.3.5-2.7 1-2.7 1-1.3.5c-.4.2-.9.4-1.3.6.5-.1.9-.3 1.4-.4z"/><path d="m124.6 39.4 2.9-1 2.9-1 1.4-.5c.5-.2.9-.4 1.4-.6-.5.1-1 .3-1.5.4l-1.4.5-2.9 1-2.9 1-1.4.5c-.5.2-.9.4-1.4.6.5-.1 1-.3 1.5-.4z"/><path d="m124.7 40.1 3-1.1 3-1.1 1.5-.5c.5-.2 1-.4 1.4-.7-.5.1-1 .3-1.5.4l-1.5.5-3 1.1-3 1.1-1.5.5c-.5.2-1 .4-1.4.7.5-.1 1-.3 1.5-.4z"/><path d="m124.9 40.8 3-1.1 3-1.1 1.5-.5c.5-.2 1-.4 1.4-.7-.5.1-1 .3-1.5.4l-1.5.5-3 1.1-3 1.1-1.5.5c-.5.2-1 .4-1.4.7.5-.1 1-.3 1.5-.4z"/><path d="m125.2 41.5 3-1.1 3-1.1 1.5-.5c.5-.2 1-.4 1.4-.7-.5.1-1 .3-1.5.4l-1.5.5-3 1.1-3 1.1-1.5.5c-.5.2-1 .4-1.4.7.5-.1 1-.3 1.5-.4z"/><path d="m131.2 39.8-2.9 1.1-2.9 1.1-1.5.5c-.5.2-.9.4-1.4.7.5-.1 1-.3 1.5-.4l1.5-.5 2.9-1.1 2.9-1.1 1.5-.5c.5-.2.9-.4 1.4-.7-.5.1-1 .3-1.5.4z"/><path d="m131.3 40.6-2.8 1-2.8 1-1.4.5c-.4.2-.9.4-1.3.6.5-.1.9-.3 1.4-.4l1.4-.5 2.8-1 2.8-1 1.4-.5c.4-.2.9-.4 1.3-.6-.5.1-.9.3-1.4.4z"/><path d="m131.3 41.4-2.5.9-2.5.9-1.2.5c-.4.2-.8.4-1.2.6.4-.1.9-.2 1.3-.3l1.2-.5 2.5-.9 2.5-.9 1.2-.5c.4-.2.8-.4 1.2-.6-.4.1-.9.2-1.3.3z"/></svg>